<?xml version="1.0" standalone="no"?>
<!DOCTYPE svg PUBLIC "-//W3C//DTD SVG 20010904//EN"
 "http://www.w3.org/TR/2001/REC-SVG-20010904/DTD/svg10.dtd">
<svg version="1.0" xmlns="http://www.w3.org/2000/svg"
 width="225.000000pt" height="225.000000pt" viewBox="0 0 225.000000 225.000000"
 preserveAspectRatio="xMidYMid meet">

<g transform="translate(0.000000,225.000000) scale(0.100000,-0.100000)"
fill="#000000" stroke="none">
<path d="M0 2110 l0 -140 28 -11 c15 -6 32 -12 38 -13 7 -1 20 -8 29 -16 10
-8 31 -20 49 -26 321 -123 343 -127 400 -64 20 22 36 43 36 47 0 24 -37 82
-61 96 l-29 16 22 26 c12 14 28 25 35 25 8 0 13 12 13 29 0 24 -5 30 -30 35
-24 4 -30 11 -30 31 0 23 -3 25 -47 25 -35 0 -44 -3 -33 -10 8 -5 25 -10 38
-10 42 0 24 -28 -23 -36 -25 -3 -45 -9 -45 -13 0 -4 -14 -12 -32 -19 -24 -9
-41 -9 -71 0 -30 9 -40 9 -46 -1 -6 -9 -15 -9 -35 -1 -15 5 -42 10 -59 10 -35
1 -60 16 -70 43 -3 9 -16 17 -27 17 -19 0 -20 2 -6 15 9 9 21 15 28 14 25 -5
60 12 54 27 -4 10 3 14 27 15 18 0 113 2 212 5 309 8 327 6 430 -41 30 -13 78
-24 122 -27 62 -5 80 -11 143 -49 78 -47 102 -68 165 -143 40 -47 81 -76 109
-76 8 0 41 22 73 48 109 91 128 91 136 -1 3 -47 1 -66 -11 -80 -14 -16 -13
-19 8 -42 13 -14 18 -25 11 -25 -8 0 -10 -11 -5 -35 4 -22 2 -41 -6 -50 -15
-18 4 -79 37 -116 l23 -26 -26 -11 c-31 -15 -29 -24 15 -54 21 -14 39 -38 48
-62 7 -22 20 -47 28 -56 16 -17 19 -57 9 -108 -8 -41 16 -79 53 -84 l28 -4
-27 -12 c-16 -6 -28 -16 -28 -21 0 -18 32 -41 58 -42 21 -1 17 -4 -18 -13 -39
-11 -45 -15 -42 -37 5 -31 45 -64 102 -82 67 -22 189 -54 235 -62 22 -4 65
-15 95 -24 31 -10 70 -22 88 -25 l32 -8 0 101 c0 64 -4 101 -11 101 -5 0 -8
-4 -5 -9 3 -5 -1 -11 -8 -14 -21 -8 -86 4 -86 15 0 6 6 8 14 5 7 -3 26 8 42
24 15 16 34 29 41 29 11 0 13 106 13 570 l0 570 -1125 0 -1125 0 0 -140z m480
-90 c0 -5 -5 -10 -11 -10 -5 0 -7 5 -4 10 3 6 8 10 11 10 2 0 4 -4 4 -10z"/>
<path d="M387 2204 c-14 -14 6 -24 49 -24 32 0 44 4 44 15 0 11 -11 15 -43 15
-24 0 -47 -3 -50 -6z"/>
<path d="M608 2060 c34 -31 40 -46 20 -52 -9 -3 -9 -6 0 -12 7 -4 12 -2 12 3
0 6 10 11 22 11 l21 0 -21 23 c-12 13 -22 31 -22 40 0 13 -9 17 -32 17 l-33
-1 33 -29z"/>
<path d="M770 1730 c-19 -11 -60 -22 -91 -26 -49 -5 -56 -9 -52 -25 3 -11 9
-19 14 -19 5 0 15 -11 21 -25 6 -14 17 -25 25 -25 7 0 13 -4 13 -9 0 -5 10
-11 21 -14 14 -4 20 -11 16 -21 -6 -15 12 -26 44 -26 13 0 19 -7 19 -24 0 -17
7 -26 25 -30 14 -4 25 -14 25 -22 0 -10 6 -14 15 -10 12 4 15 -4 15 -38 0 -60
-8 -76 -36 -76 -13 0 -34 -11 -48 -25 -22 -22 -34 -25 -91 -25 -58 0 -65 -2
-65 -20 0 -18 7 -20 55 -20 42 0 55 -3 55 -15 0 -12 -13 -15 -55 -15 -30 0
-55 5 -55 10 0 6 -33 10 -80 10 -64 0 -80 -3 -80 -15 0 -8 -5 -15 -11 -15 -6
0 -9 -18 -8 -46 3 -41 0 -48 -35 -80 -20 -18 -39 -34 -41 -34 -8 0 -65 -62
-65 -71 0 -5 5 -9 12 -9 35 0 -17 -19 -93 -35 -69 -14 -94 -15 -119 -6 -19 6
-38 7 -44 2 -6 -5 -20 -5 -31 0 -44 17 -45 15 -45 -122 l0 -132 52 6 c66 6
108 25 108 48 0 10 18 26 48 40 26 13 46 29 45 35 -1 7 11 18 28 25 25 10 32
10 39 -1 4 -7 13 -10 18 -6 6 4 78 9 159 11 81 3 182 11 223 19 41 7 78 12 82
9 4 -2 35 4 69 12 35 9 72 18 83 19 12 1 39 11 61 21 28 13 67 19 133 20 51 1
95 5 99 8 8 9 -25 95 -40 104 -7 5 -24 26 -40 49 -23 34 -28 53 -32 125 -2 46
-7 99 -11 117 -4 21 -3 32 5 32 6 0 11 17 11 38 0 45 14 62 51 62 28 0 55 23
45 39 -3 5 -29 15 -57 22 -28 7 -54 19 -56 26 -3 7 -23 23 -44 35 -21 12 -39
25 -39 30 0 4 -6 8 -13 8 -16 0 -69 60 -54 61 7 0 -15 13 -47 30 -67 33 -105
35 -156 9z m127 -342 c-2 -13 -4 -3 -4 22 0 25 2 35 4 23 2 -13 2 -33 0 -45z
m-279 -190 c-7 -20 -58 -23 -58 -4 0 11 10 16 31 16 20 0 29 -4 27 -12z m-108
-78 c-19 -13 -30 -13 -30 0 0 6 10 10 23 10 18 0 19 -2 7 -10z m80 6 c0 -2 -7
-6 -15 -10 -8 -3 -15 -1 -15 4 0 6 7 10 15 10 8 0 15 -2 15 -4z"/>
<path d="M565 1465 l-40 -13 68 -1 c63 -1 86 9 51 23 -21 8 -32 7 -79 -9z"/>
<path d="M328 1453 c7 -3 16 -2 19 1 4 3 -2 6 -13 5 -11 0 -14 -3 -6 -6z"/>
<path d="M380 1320 c0 -27 5 -50 10 -50 6 0 10 23 10 50 0 28 -4 50 -10 50 -5
0 -10 -22 -10 -50z"/>
<path d="M480 1330 l0 -40 40 0 40 0 0 40 0 40 -40 0 -40 0 0 -40z"/>
<path d="M1682 960 c2 -7 36 -31 75 -54 120 -69 126 -78 33 -46 -98 34 -107
36 -90 15 11 -13 8 -15 -14 -15 -28 0 -39 -24 -34 -70 3 -21 -2 -26 -25 -28
-25 -3 -28 -7 -26 -35 1 -18 -1 -40 -5 -49 -16 -36 -3 -53 42 -54 23 -1 42 2
42 6 0 12 54 29 129 40 90 14 101 19 101 39 0 36 121 8 144 -34 6 -11 14 -22
17 -25 12 -10 18 -55 10 -69 -6 -10 -20 -12 -45 -8 -24 4 -36 2 -36 -6 -1 -15
-56 -77 -69 -77 -5 0 -11 -5 -13 -11 -2 -7 -12 -7 -31 0 -32 12 -154 15 -159
4 -1 -5 -23 -21 -48 -37 -44 -29 -44 -30 -20 -36 23 -6 22 -7 -13 -14 -20 -4
-41 -4 -46 -1 -6 3 -26 -2 -45 -12 -34 -16 -36 -19 -36 -67 0 -51 0 -51 -47
-74 -27 -12 -54 -22 -61 -22 -7 0 -18 -11 -24 -25 -6 -14 -15 -25 -20 -25 -4
0 -8 -17 -8 -38 0 -37 -10 -48 -62 -68 -21 -7 -24 -34 -6 -52 9 -9 119 -12
442 -10 237 1 411 3 386 5 -105 7 -155 45 -92 70 24 10 19 11 -40 12 -38 1
-68 -3 -68 -7 0 -11 -86 -30 -175 -38 -38 -4 -85 -13 -104 -21 -22 -8 -37 -10
-41 -4 -3 6 -11 6 -20 1 -21 -13 -27 -12 -34 6 -7 17 10 53 31 69 8 6 19 22
26 35 7 14 39 39 72 57 32 17 64 37 69 45 6 8 36 29 66 46 78 46 82 48 115 63
17 8 44 23 60 35 17 12 43 25 60 28 16 4 52 18 80 31 27 12 67 29 88 36 l37
13 0 83 c0 67 -3 83 -15 83 -8 0 -15 5 -15 10 0 6 -10 10 -23 10 -13 0 -27 3
-30 7 -4 3 -29 14 -57 24 -27 10 -62 27 -76 38 -15 12 -32 21 -39 21 -6 0 -20
9 -30 20 -10 11 -23 20 -30 20 -6 0 -20 7 -31 16 -10 8 -14 13 -9 11 44 -20
106 -46 135 -56 33 -13 58 -23 125 -52 17 -7 37 -18 45 -25 45 -34 50 -28 50
61 0 95 7 88 -110 111 -36 6 -94 20 -130 29 -36 10 -90 24 -120 32 -30 8 -64
18 -76 23 -12 4 -47 11 -79 15 -45 6 -57 5 -53 -5z"/>
<path d="M0 255 l0 -255 544 0 c299 0 551 3 560 6 21 8 20 19 -6 54 -20 27
-27 30 -79 30 -32 0 -59 5 -61 10 -5 15 -77 39 -118 40 -22 0 -52 12 -80 30
-28 18 -58 30 -79 30 -23 0 -39 7 -53 25 -17 22 -27 25 -84 25 -48 0 -64 3
-64 14 0 10 -22 16 -80 21 -69 6 -80 10 -80 26 0 15 -7 19 -40 19 -22 0 -40 5
-40 10 0 6 -18 10 -39 10 -41 0 -103 40 -100 64 3 23 -1 36 -12 36 -7 0 -8 -5
-3 -13 5 -7 -1 -1 -13 13 -13 14 -23 29 -23 34 0 4 -7 6 -15 2 -9 -3 -15 0
-15 9 0 8 -4 15 -10 15 -6 0 -10 -92 -10 -255z"/>
<path d="M2228 3 c7 -3 16 -2 19 1 4 3 -2 6 -13 5 -11 0 -14 -3 -6 -6z"/>
</g>
</svg>
